<svg width="15" height="15" viewBox="0 0 15 15" fill="none" xmlns="http://www.w3.org/2000/svg">
<path d="M7.5 0.322922C8.01776 0.322922 8.4375 0.742655 8.4375 1.26042L8.43747 6.16042C8.43747 6.38134 8.61655 6.56042 8.83747 6.56042L13.7375 6.56045C14.2155 6.56045 14.6099 6.91809 14.6677 7.38035L14.675 7.49795C14.675 8.01572 14.2553 8.43545 13.7375 8.43545L8.83747 8.43542C8.61655 8.43542 8.43747 8.61451 8.43747 8.83543L8.4375 13.7355C8.4375 14.2134 8.07985 14.6078 7.61759 14.6657L7.5 14.673C6.98223 14.673 6.5625 14.2532 6.5625 13.7355L6.56247 8.83542C6.56247 8.61451 6.38338 8.43542 6.16247 8.43542L1.26247 8.43545C0.784528 8.43545 0.390121 8.07781 0.332271 7.61555L0.324966 7.49795C0.324966 6.98018 0.744699 6.56045 1.26247 6.56045L6.16247 6.56042C6.38338 6.56042 6.56247 6.38134 6.56247 6.16043L6.5625 1.26042C6.5625 0.782483 6.92014 0.388076 7.3824 0.330226L7.5 0.322922Z" fill="white"/>
</svg>
