<svg width="23" height="23" viewBox="0 0 23 23" fill="none" xmlns="http://www.w3.org/2000/svg">
<path d="M20.9027 22.1427L13.2827 14.5213C9.89295 16.9313 5.22197 16.3418 2.53722 13.1652C-0.147533 9.98868 0.0496006 5.28479 2.99072 2.344C5.93107 -0.598071 10.6354 -0.796057 13.8126 1.88855C16.9897 4.57317 17.5795 9.2446 15.1694 12.6347L22.7894 20.256L20.9041 22.1413L20.9027 22.1427ZM8.64672 2.66665C6.11832 2.66608 3.93698 4.4409 3.42335 6.91658C2.90973 9.39226 4.205 11.8884 6.52496 12.8937C8.84491 13.8989 11.5519 13.1371 13.007 11.0694C14.4622 9.0017 14.2655 6.19642 12.5361 4.352L13.3427 5.152L12.4334 4.24533L12.4174 4.22933C11.4198 3.22557 10.0619 2.66284 8.64672 2.66665Z" fill="white"/>
</svg>
