<svg width="16" height="16" viewBox="0 0 16 16" fill="none" xmlns="http://www.w3.org/2000/svg">
<path fill-rule="evenodd" clip-rule="evenodd" d="M8.56684 15.6365H1.25212C0.786439 15.6365 0.40918 15.259 0.40918 14.7935V1.2067C0.40918 0.741087 0.786498 0.36377 1.25212 0.36377H14.839C15.3045 0.36377 15.6819 0.741087 15.6819 1.2067V14.7935C15.6819 15.2591 15.3045 15.6365 14.839 15.6365H10.9471V9.72206H12.9323L13.2296 7.41709H10.9471V5.94552C10.9471 5.27818 11.1325 4.82341 12.0894 4.82341L13.31 4.82287V2.7613C13.0989 2.73321 12.3743 2.67045 11.5314 2.67045C9.77163 2.67045 8.56684 3.74462 8.56684 5.71725V7.41709H6.57653V9.72206H8.56684V15.6365Z" fill="white"/>
</svg>
