<svg width="16" height="13" viewBox="0 0 16 13" fill="none" xmlns="http://www.w3.org/2000/svg">
<path fill-rule="evenodd" clip-rule="evenodd" d="M15.6819 1.50668C15.1207 1.76224 14.5165 1.93506 13.8827 2.01228C14.53 1.61516 15.0266 0.985458 15.2606 0.235335C14.6546 0.603042 13.9849 0.870546 13.2696 1.01395C12.6994 0.389769 11.8846 0 10.9827 0C9.2535 0 7.85056 1.43865 7.85056 3.21284C7.85056 3.46472 7.87746 3.70925 7.93124 3.94458C5.32707 3.81037 3.01873 2.53258 1.47236 0.586492C1.20253 1.06267 1.04834 1.61516 1.04834 2.20349C1.04834 3.31764 1.60145 4.30126 2.44232 4.87764C1.92955 4.86201 1.44547 4.71585 1.02235 4.47684V4.51636C1.02235 6.07361 2.10256 7.37253 3.53687 7.6667C3.27421 7.74208 2.99722 7.77977 2.71125 7.77977C2.50955 7.77977 2.31233 7.76046 2.12139 7.72277C2.52031 8.99872 3.67672 9.9281 5.04828 9.95292C3.97613 10.8152 2.62429 11.3291 1.15681 11.3291C0.904014 11.3291 0.653909 11.3144 0.40918 11.2849C1.79598 12.195 3.44364 12.7273 5.21233 12.7273C10.9765 12.7273 14.1275 7.83217 14.1275 3.58607C14.1275 3.44634 14.1248 3.30661 14.1194 3.16964C14.7317 2.71644 15.2633 2.15109 15.6819 1.50668Z" fill="white"/>
</svg>
